HIERARCHY
ROOT Hips
{
	OFFSET -0.179506 -22.333345 2.821913
	CHANNELS 6 Xposition Yposition Zposition Zrotation Yrotation Xrotation 
	JOINT LeftUpLeg
	{
		OFFSET 6.951974 -9.140623 -0.681533
		CHANNELS 3 Zrotation Yrotation Xrotation
		JOINT LeftLeg
		{
			OFFSET 3.427654 -37.519855 -0.449580
			CHANNELS 3 Zrotation Yrotation Xrotation
			JOINT LeftFoot
			{
				OFFSET -1.359570 -39.796059 -4.369333
				CHANNELS 3 Zrotation Yrotation Xrotation
				JOINT LeftToe
				{
					OFFSET 2.635814 -5.579078 11.928840
					CHANNELS 3 Zrotation Yrotation Xrotation
					End Site
					{
						OFFSET 0.000000 0.000000 0.000000
					}
				}
			}
		}
	}
	JOINT RightUpLeg
	{
		OFFSET -6.767048 -9.052170 -0.431982
		CHANNELS 3 Zrotation Yrotation Xrotation
		JOINT RightLeg
		{
			OFFSET -3.829005 -38.256897 -0.885003
			CHANNELS 3 Zrotation Yrotation Xrotation
			JOINT RightFoot
			{
				OFFSET 1.577377 -39.841461 -4.231180
				CHANNELS 3 Zrotation Yrotation Xrotation
				JOINT RightToe
				{
					OFFSET -2.537174 -4.814398 12.334795
					CHANNELS 3 Zrotation Yrotation Xrotation
					End Site
					{
						OFFSET 0.000000 0.000000 0.000000
					}
				}
			}
		}
	}
	JOINT Spine
	{
		OFFSET -0.253288 10.896323 -2.669631
		CHANNELS 3 Zrotation Yrotation Xrotation
		JOINT Spine1
		{
			OFFSET 0.548704 13.518043 0.109247
			CHANNELS 3 Zrotation Yrotation Xrotation
			JOINT Spine2
			{
				OFFSET 0.145701 5.292222 2.542457
				CHANNELS 3 Zrotation Yrotation Xrotation
				JOINT Neck
				{
					OFFSET -0.277840 21.387037 -4.285703
					CHANNELS 3 Zrotation Yrotation Xrotation
					JOINT Head
					{
						OFFSET 0.515184 6.496960 5.134897
						CHANNELS 3 Zrotation Yrotation Xrotation
						End Site
						{
							OFFSET 0.000000 0.000000 0.000000
						}
					}
				}
				JOINT LeftShoulder
				{
					OFFSET 7.884473 12.174932 -3.408961
					CHANNELS 3 Zrotation Yrotation Xrotation
					JOINT LeftArm
					{
						OFFSET 9.097692 3.046888 -0.886815
						CHANNELS 3 Zrotation Yrotation Xrotation
						JOINT LeftForeArm
						{
							OFFSET 25.961220 -1.277207 -2.745643
							CHANNELS 3 Zrotation Yrotation Xrotation
							JOINT LeftHand
							{
								OFFSET 24.923361 0.898606 -0.117091
								CHANNELS 3 Zrotation Yrotation Xrotation
								End Site
								{
									OFFSET 0.000000 0.000000 0.000000
								}
							}
						}
					}
				}
				JOINT RightShoulder
				{
					OFFSET -8.175920 11.883285 -3.861528
					CHANNELS 3 Zrotation Yrotation Xrotation
					JOINT RightArm
					{
						OFFSET -9.601238 3.255117 -0.914307
						CHANNELS 3 Zrotation Yrotation Xrotation
						JOINT RightForeArm
						{
							OFFSET -25.374195 -1.332924 -2.140099
							CHANNELS 3 Zrotation Yrotation Xrotation
							JOINT RightHand
							{
								OFFSET -25.529810 0.777228 -0.555919
								CHANNELS 3 Zrotation Yrotation Xrotation
								End Site
								{
									OFFSET 0.000000 0.000000 0.000000
								}
							}
						}
					}
				}
			}
		}
	}
}
MOTION
Frames: 7
Frame Time: 0.033333
182.101944 160.066223 94.177406 -50.765136 1.451431 85.163996 -3.610339 -3.546707 2.110739 -1.233418 -8.538752 6.544003 -0.738163 12.368230 -5.143113 nan nan nan 0.257579 4.641308 -17.035559 5.006206 -0.295543 50.819290 3.910067 -3.694788 -3.035168 nan nan nan -0.181813 -2.105220 8.501065 2.693782 -1.212459 2.114897 0.069713 -0.328218 -0.498011 0.764609 1.111712 -0.741944 5.749174 0.445988 -6.673464 -14.012280 5.902340 -3.282423 -70.448749 -11.728469 16.464861 11.176757 -24.237488 -24.654853 -2.983623 -20.639997 -25.989572 11.774669 -4.783369 -0.384174 65.739009 3.429007 11.604687 -5.809235 23.922599 -8.582121 3.885969 14.606685 -23.850286 
181.690643 159.624054 94.257423 -50.673110 1.741370 85.203681 -3.419814 -3.335907 2.774650 -0.993075 -8.826789 6.046564 -0.908845 12.359424 -5.385027 nan nan nan 0.574586 5.073513 -17.957401 4.661856 -0.534103 49.467737 3.510126 -3.985154 -3.067425 nan nan nan -0.208633 -2.486274 8.381040 2.875665 -1.208379 2.265702 0.261569 -0.427399 -0.391171 0.656377 1.244496 -0.729467 5.974097 0.450732 -6.644173 -14.021780 5.713024 -3.088246 -70.597649 -12.277217 16.329521 11.493552 -24.950438 -24.913055 -2.917570 -20.946924 -25.770204 11.720513 -4.681716 -0.082577 65.710152 3.718591 11.235751 -6.034974 23.908798 -8.456910 4.308990 14.890600 -23.226543 
181.244278 159.216843 94.319374 -50.502766 2.021527 85.250393 -3.190633 -3.176467 3.400228 -0.756082 -9.019425 5.618632 -1.075316 12.243788 -5.595027 nan nan nan 0.901715 5.510600 -18.827038 4.360883 -0.813148 48.001724 3.056776 -4.284640 -3.227739 nan nan nan -0.254410 -2.855098 8.503576 3.020022 -1.242033 2.024772 0.418470 -0.597559 -0.221571 0.731258 1.266981 -0.661967 6.129155 0.490100 -6.599475 -13.994250 5.551457 -3.150848 -70.782000 -12.544294 16.506411 11.970771 -25.452788 -25.029326 -2.280602 -21.344310 -25.837880 11.698397 -4.765121 -0.450855 65.748955 3.509946 11.372498 -5.962920 23.685326 -8.176912 4.378166 15.269742 -23.514463 
180.785828 158.806046 94.354286 -50.253351 2.240430 85.274726 -3.075622 -3.193693 4.058837 -0.530654 -9.334754 5.177606 -1.303978 12.172840 -5.651630 nan nan nan 1.166371 5.797929 -19.569048 3.991375 -1.025308 46.392727 2.941733 -4.731840 -3.406998 nan nan nan -0.340489 -3.186061 8.668470 3.150763 -1.356053 1.685846 0.530945 -0.792579 0.064287 0.782353 1.229216 -0.566325 6.351356 0.641626 -6.640574 -13.881653 5.431194 -3.282789 -70.963762 -12.764254 16.736571 12.394651 -25.966096 -25.153549 -0.982079 -21.322155 -25.641221 11.726224 -4.950461 -0.971036 65.781579 3.207191 11.601005 -5.724140 23.607847 -7.878326 3.778053 15.373378 -23.913761 
180.310242 158.340134 94.369003 -50.054070 2.436922 85.325760 -2.998276 -3.131349 4.731951 -0.351801 -9.675637 4.716474 -1.572607 12.027467 -5.907191 nan nan nan 1.386031 6.077857 -20.159371 3.512881 -1.186006 44.514820 3.122918 -5.177327 -3.294596 nan nan nan -0.385161 -3.483104 8.546444 3.338379 -1.471472 1.852309 0.601741 -0.970050 0.045933 0.779286 1.235662 -0.587140 6.473296 0.674001 -6.430188 -13.803136 5.399541 -3.271749 -71.157755 -13.145489 16.917989 12.746379 -26.550649 -25.806199 -2.448284 -21.684242 -25.755814 11.673412 -5.100286 -1.236516 65.969122 3.032460 11.803899 -5.984830 23.483731 -7.900731 4.351861 15.288272 -23.865478 
179.825821 157.879822 94.362297 -49.887671 2.608478 85.335457 -2.944986 -2.928298 5.426303 -0.113095 -9.950575 4.302530 -1.583957 11.940122 -6.307656 nan nan nan 1.620508 6.319291 -20.643457 3.113195 -1.176716 42.538639 3.304463 -5.414668 -3.071750 nan nan nan -0.538744 -3.662212 8.427235 3.592426 -1.465117 2.536637 0.735950 -1.205205 -0.411151 0.923968 1.397704 -1.016655 6.372154 0.514530 -5.821161 -13.672533 5.373603 -3.223296 -71.430183 -13.642101 17.224168 13.017926 -27.127469 -26.346120 -2.935084 -21.966406 -25.806227 11.613176 -5.332396 -1.375215 66.096732 2.878040 12.104103 -6.464284 23.501758 -7.940692 4.098973 15.170754 -23.606817 
179.327637 157.416031 94.338219 -49.665988 2.788199 85.388297 -2.889719 -2.740929 6.089917 0.201943 -10.306336 3.869717 -1.465431 12.086158 -6.756705 nan nan nan 1.813982 6.433261 -21.178034 2.926452 -1.232665 40.514820 3.194205 -5.613478 -2.857372 nan nan nan -0.864968 -3.765807 8.613178 3.920076 -1.422509 2.787624 1.037257 -1.325275 -0.818831 0.982440 1.168493 -1.406428 6.428205 0.596518 -5.376061 -13.631396 5.324531 -3.041544 -71.645504 -14.122622 17.620441 13.104673 -27.880627 -26.322011 -2.368548 -22.177499 -26.198667 11.645199 -6.065287 -1.837098 65.943328 2.440536 11.974091 -6.444126 23.781503 -7.519072 3.525111 15.083915 -23.076293 
